<svg width="150" height="85" viewBox="0 0 150 85" fill="none" xmlns="http://www.w3.org/2000/svg">
<g clip-path="url(#clip0_124_95)">
<path d="M149.998 13.3733C137.472 10.5409 124.455 20.1155 116.023 28.9548C108.881 36.4487 101.739 44.5778 92.5686 49.2643C87.0061 52.1065 81.0091 53.5282 74.9989 53.5282C68.9888 53.5282 62.9906 52.1065 57.4325 49.2643C48.2588 44.5778 41.1168 36.4487 33.9747 28.9548C25.5461 20.1254 12.5225 10.5409 0 13.3733V0.713549C12.1761 -0.441202 23.7018 9.00161 31.3689 18.195C33.8527 21.1657 36.1132 24.3446 38.524 27.6508C43.2443 34.112 48.1204 39.8629 53.9236 44.0058C60.1811 48.4745 67.5878 50.7132 75 50.7132C82.4122 50.7132 89.8157 48.4734 96.0699 44.0058C101.873 39.864 106.755 34.1131 111.473 27.6508C113.888 24.3435 116.151 21.1646 118.631 18.195C126.294 9.00161 137.827 -0.440113 150 0.713549V13.3733H149.998Z" fill="#4F4946"/>
<path d="M67.2893 21.3847H66.5801V21.5862H67.2893V21.3847Z" fill="#641A2E"/>
<path d="M67.4799 21.0132H66.7708V21.2147H67.4799V21.0132Z" fill="#641A2E"/>
<path d="M67.675 20.6428H66.9625V20.8476H67.675V20.6428Z" fill="#641A2E"/>
<path d="M67.8667 20.2713H67.1542V20.4761H67.8667V20.2713Z" fill="#641A2E"/>
<path d="M68.0573 19.9042H67.3449V20.1057H68.0573V19.9042Z" fill="#641A2E"/>
<path d="M90.5488 20.0741C90.5488 24.5145 88.8265 28.5322 86.0497 31.4299L86.2381 31.6271L86.0431 31.821C83.1464 34.7428 79.3401 36.3518 75.3214 36.3518C66.7806 36.3518 59.8303 29.0485 59.8303 20.0731C59.8303 15.8713 61.3511 11.882 64.1094 8.84583L64.2946 8.64102L64.483 8.8382C67.2446 5.89903 71.0804 4.07213 75.3235 4.07213C83.7325 4.07213 90.551 11.237 90.551 20.0731H90.5488V20.0741ZM64.3033 9.43192C61.7563 12.3406 60.3543 16.1088 60.3543 20.0741C60.3543 28.7468 67.0671 35.8016 75.3214 35.8016C79.1113 35.8016 82.714 34.3179 85.4854 31.6173L76.1994 21.8902C76.6482 21.5786 76.9544 21.0579 76.9979 20.462H87.2774V20.011H76.9751C76.8661 19.3519 76.4304 18.8115 75.853 18.5795V12.2567H74.586V18.5795C74.2331 18.7211 73.9324 18.975 73.7287 19.304L64.3044 9.43192H64.3033Z" fill="#641A2E"/>
<path fill-rule="evenodd" clip-rule="evenodd" d="M79.9273 31.1707H79.9306L79.9175 31.1598C79.8412 31.077 79.7628 31.004 79.6735 30.9343L69.6783 21.6821C69.6783 21.6821 69.4931 21.5437 69.3548 21.1134C69.2132 20.6831 69.1663 19.9249 69.1663 19.9249V17.5958C69.1663 17.5958 69.1663 16.5042 68.3482 15.6229C67.5268 14.746 66.4189 14.7285 65.3099 14.7285C64.2009 14.7285 62.7498 15.3734 62.7498 15.3734L65.9559 17.0925L66.1269 18.2745L65.6846 19.4946L64.7282 19.7092L61.8282 18.2745C61.8282 18.2745 61.9469 19.3835 62.3391 20.0948C62.7313 20.8062 63.4645 21.291 63.4645 21.291L67.9342 23.3706L77.425 33.3854C77.5078 33.4998 77.6069 33.6 77.7115 33.6904L77.7213 33.6969V33.6937C77.998 33.9192 78.3411 34.051 78.7181 34.051C79.6255 34.051 80.3576 33.2852 80.3576 32.3352C80.3576 31.8886 80.1931 31.479 79.9251 31.1707H79.9273ZM78.7192 33.1217C78.3063 33.1217 77.9675 32.7677 77.9675 32.3352C77.9675 31.9027 78.3074 31.5454 78.7192 31.5454C79.1309 31.5454 79.4676 31.8995 79.4676 32.3352C79.4676 32.771 79.1342 33.1217 78.7192 33.1217ZM67.444 22.5285L65.8905 21.7387L67.1542 19.1395L68.602 19.8955L67.444 22.5296V22.5285Z" fill="#641A2E"/>
<path fill-rule="evenodd" clip-rule="evenodd" d="M75.1895 2.38467C84.5354 2.38467 92.1557 10.3917 92.1557 20.2125C92.1557 30.0333 84.5354 38.0403 75.1895 38.0403C65.8437 38.0403 58.2234 30.0333 58.2234 20.2125C58.2234 10.3917 65.8437 2.38467 75.1895 2.38467ZM75.1895 0C85.786 0 94.4249 9.08223 94.4249 20.2125C94.4249 31.3428 85.7849 40.425 75.1895 40.425C64.5942 40.425 55.9542 31.346 55.9542 20.2125C55.9542 9.07896 64.5942 0 75.1895 0Z" fill="#641A2E"/>
<path d="M1.45978 84.031V62.971H7.50588L11.1357 77.3367L14.7253 62.971H20.7844V84.031H17.0315V67.4527L13.0596 84.031H9.17047L5.21272 67.4527V84.031H1.45978Z" fill="#4F4A47"/>
<path d="M24.3326 78.4141V74.3769H31.8657V78.4141H24.3326Z" fill="#4F4A47"/>
<path d="M46.9058 76.2877L50.8221 77.5949C50.2219 79.8935 49.2229 81.6006 47.8263 82.7161C46.4297 83.8317 44.6573 84.3894 42.5101 84.3894C39.8531 84.3894 37.6699 83.434 35.9596 81.5233C34.2493 79.6125 33.3941 77.0001 33.3941 73.6862C33.3941 70.1806 34.2536 67.4582 35.9738 65.5191C37.6939 63.5799 39.9544 62.6104 42.7563 62.6104C45.2041 62.6104 47.1923 63.3719 48.7207 64.8948C49.6303 65.7947 50.3123 67.0878 50.7676 68.7741L46.7685 69.7797C46.5321 68.6881 46.0386 67.8264 45.288 67.1934C44.5374 66.5616 43.6256 66.2457 42.5515 66.2457C41.0688 66.2457 39.8651 66.8056 38.9413 67.9266C38.0174 69.0476 37.5555 70.8625 37.5555 73.3714C37.5555 76.0338 38.0109 77.9305 38.9206 79.0601C39.8302 80.1909 41.0133 80.7552 42.4687 80.7552C43.5417 80.7552 44.4655 80.3957 45.239 79.6778C46.0125 78.9599 46.567 77.8291 46.9036 76.2877H46.9058Z" fill="#4F4A47"/>
<path d="M54.2896 84.031V62.971H69.1249V66.5333H58.3291V71.2024H68.3732V74.7505H58.3291V80.4829H69.5062V84.031H54.2885H54.2896Z" fill="#4F4A47"/>
<path d="M72.9323 84.031V62.971H79.4153C81.8718 62.971 83.4733 63.0767 84.2195 63.2869C85.3655 63.6028 86.3253 64.2902 87.0987 65.348C87.8722 66.4069 88.2589 67.7741 88.2589 69.4496C88.2589 70.7427 88.0356 71.8299 87.59 72.7101C87.1445 73.5914 86.578 74.2832 85.8906 74.7865C85.2032 75.2898 84.506 75.622 83.7957 75.7854C82.8316 75.987 81.435 76.0872 79.6059 76.0872H76.9718V84.031H72.9323ZM76.9718 66.5333V72.5097H79.1821C80.7748 72.5097 81.8392 72.3996 82.3751 72.1796C82.9122 71.9595 83.3327 71.6142 83.6377 71.1447C83.9428 70.6751 84.0953 70.1293 84.0953 69.5073C84.0953 68.7415 83.8818 68.1096 83.4536 67.6107C83.0255 67.1128 82.4852 66.8013 81.8294 66.6771C81.3468 66.5812 80.3783 66.5333 78.9218 66.5333H76.9707H76.9718Z" fill="#4F4A47"/>
<path d="M91.5881 62.971H99.5853C101.168 62.971 102.349 63.0407 103.127 63.1791C103.905 63.3185 104.601 63.6083 105.215 64.0484C105.83 64.4885 106.341 65.0757 106.75 65.8077C107.16 66.5409 107.365 67.3612 107.365 68.2719C107.365 69.2589 107.112 70.1631 106.607 70.9867C106.102 71.8103 105.418 72.428 104.554 72.8397C105.773 73.2134 106.71 73.8507 107.366 74.7505C108.02 75.6504 108.348 76.7093 108.348 77.925C108.348 78.8826 108.137 79.814 107.713 80.7193C107.289 81.6246 106.712 82.3479 105.98 82.8883C105.248 83.4297 104.345 83.7619 103.271 83.8872C102.597 83.9635 100.973 84.0114 98.399 84.031H91.5892V62.971H91.5881ZM95.6276 66.4766V71.3473H98.2748C99.8489 71.3473 100.827 71.3233 101.208 71.2754C101.9 71.1893 102.444 70.9377 102.839 70.5215C103.235 70.1054 103.433 69.5563 103.433 68.8766C103.433 68.1968 103.262 67.6967 102.921 67.2893C102.58 66.8819 102.072 66.6357 101.399 66.5496C100.998 66.5017 99.8478 66.4777 97.9458 66.4777H95.6254L95.6276 66.4766ZM95.6276 74.8518V80.4829H99.3674C100.823 80.4829 101.747 80.4393 102.138 80.3533C102.738 80.2378 103.227 79.9578 103.605 79.5133C103.982 79.0678 104.172 78.4719 104.172 77.7246C104.172 77.0927 104.026 76.5567 103.735 76.1155C103.444 75.6754 103.022 75.3541 102.472 75.1525C101.922 74.951 100.727 74.8508 98.8892 74.8508H95.6276V74.8518Z" fill="#4F4A47"/>
<path d="M111.814 62.971H115.594V76.9925L123.701 62.971H127.727V84.031H123.947V70.2829L115.854 84.031H111.815V62.971H111.814Z" fill="#4F4A47"/>
<path d="M144.65 76.2877L148.567 77.5949C147.967 79.8935 146.968 81.6006 145.572 82.7161C144.175 83.8317 142.403 84.3894 140.255 84.3894C137.598 84.3894 135.415 83.434 133.705 81.5233C131.995 79.6125 131.139 77.0001 131.139 73.6862C131.139 70.1806 131.999 67.4582 133.719 65.5191C135.439 63.5799 137.7 62.6104 140.502 62.6104C142.949 62.6104 144.937 63.3719 146.466 64.8948C147.376 65.7947 148.058 67.0878 148.513 68.7741L144.514 69.7797C144.277 68.6881 143.784 67.8264 143.033 67.1934C142.283 66.5616 141.371 66.2457 140.297 66.2457C138.814 66.2457 137.61 66.8056 136.687 67.9266C135.763 69.0476 135.301 70.8625 135.301 73.3714C135.301 76.0338 135.756 77.9305 136.666 79.0601C137.576 80.1909 138.759 80.7552 140.214 80.7552C141.287 80.7552 142.211 80.3957 142.984 79.6778C143.758 78.9599 144.312 77.8291 144.649 76.2877H144.65Z" fill="#4F4A47"/>
</g>
<defs>
<clipPath id="clip0_124_95">
<rect width="150" height="84.3905" fill="white"/>
</clipPath>
</defs>
</svg>
