<svg width="28" height="28" viewBox="0 0 28 28" fill="none" xmlns="http://www.w3.org/2000/svg">
<g clip-path="url(#clip0_71_1128)">
<path d="M27.996 0.700867C27.996 0.878057 27.996 1.00668 27.996 1.13531C27.996 4.76706 27.996 8.39749 27.996 12.0292C27.996 13.5938 28.0052 15.1583 27.9934 16.7228C27.9803 18.5735 26.7675 20.0422 24.9969 20.26C24.1766 20.3611 23.3366 20.3047 22.5058 20.3047C19.9687 20.3086 17.4315 20.3073 14.8958 20.3047C12.1395 20.302 9.38449 20.2915 6.62819 20.2915C4.52816 20.2915 2.42944 20.3007 0.329407 20.3047C0.233593 20.3047 0.137779 20.2955 0.0183398 20.2902C0.0117772 20.1695 0.001277 20.0645 0.001277 19.9582C0.001277 14.7619 -0.00266056 9.56563 0.001277 4.36936C0.00390205 2.48458 1.10248 1.10775 2.88226 0.758618C3.1592 0.704804 3.44796 0.703492 3.73146 0.703492C11.3874 0.700867 19.0433 0.700867 26.6993 0.700867C27.114 0.700867 27.5288 0.700867 27.9973 0.700867H27.996ZM10.9188 15.7187C11.1065 15.7962 11.2351 15.8513 11.3677 15.9025C12.2208 16.2306 12.8522 15.9747 13.196 15.1268C13.6751 13.9442 14.1292 12.7511 14.5965 11.5633C15.3709 9.59188 16.1466 7.61916 16.921 5.64776C16.9643 5.5375 17.0024 5.42594 17.0457 5.30519C16.9551 5.26188 16.8869 5.23037 16.8199 5.19756C15.7397 4.67518 15.0467 5.18444 14.7054 6.08745C13.6594 8.85556 12.5568 11.6027 11.474 14.3563C11.2995 14.8013 11.1144 15.2423 10.9201 15.7174L10.9188 15.7187ZM18.0681 14.0741C18.8504 15.0743 19.7731 15.0927 20.5396 14.1988C21.4282 13.1619 22.3876 12.1854 23.3156 11.1827C23.4757 11.0094 23.6319 10.8322 23.7973 10.6511C22.3325 9.06031 20.89 7.49447 19.4331 5.91157C19.2599 6.07301 19.105 6.2082 18.9606 6.35389C18.4422 6.87365 18.4422 7.64148 18.9449 8.17567C19.5211 8.78862 20.0881 9.41075 20.659 10.0303C20.8494 10.2363 21.037 10.4424 21.23 10.6537C20.159 11.8127 19.1129 12.9441 18.0694 14.0741H18.0681ZM4.19609 10.6576C5.39967 11.9557 6.57569 13.2499 7.78977 14.506C7.98403 14.7068 8.34497 14.8039 8.6416 14.8367C9.22173 14.9023 9.55905 14.464 9.94362 14.0912C8.8831 12.9427 7.83309 11.8061 6.77257 10.659C6.86313 10.5553 6.94057 10.4647 7.02064 10.3768C7.69396 9.64438 8.36466 8.90937 9.04454 8.18355C9.38842 7.81604 9.55249 7.37372 9.36349 6.92221C9.2073 6.54683 8.8936 6.23577 8.61797 5.85251C7.10595 7.49447 5.65824 9.06818 4.19609 10.6563V10.6576Z" fill="white" fill-opacity="0.8"/>
<path d="M20.9964 27.2991H7.0351C6.7201 25.7267 7.70186 24.5139 9.28083 24.5073C9.90165 24.5047 10.5238 24.5073 11.18 24.5073V22.4349H16.7989V24.5073C17.1349 24.5073 17.4368 24.5073 17.7387 24.5073C18.122 24.5073 18.5039 24.4982 18.8872 24.51C20.0487 24.5467 20.8888 25.3303 20.9938 26.4827C21.0174 26.7413 20.9977 27.0038 20.9977 27.3004L20.9964 27.2991Z" fill="white" fill-opacity="0.8"/>
</g>
<defs>
<clipPath id="clip0_71_1128">
<rect width="28" height="26.5982" fill="white" transform="translate(0 0.700867)"/>
</clipPath>
</defs>
</svg>
