<svg width="28" height="31" viewBox="0 0 28 31" fill="none" xmlns="http://www.w3.org/2000/svg">
<g clip-path="url(#clip0_71_1134)">
<path d="M0.0049083 26.6198C0.0049083 25.7723 0.0049083 24.9427 0.0049083 24.113C0.0049083 17.6476 0.00874918 11.1834 -0.000212866 4.71788C-0.00149316 3.81143 0.034355 2.92163 0.514465 2.12016C1.32745 0.759214 2.52324 0.0140832 4.11593 0.00896205C9.33312 -0.00512117 14.549 0.00256059 19.7662 0C20.4473 0 21.1285 0 21.8339 0V13.6889C20.8404 13.7977 19.8968 14.073 19.0121 14.5403C15.8946 16.1893 14.3442 19.8189 15.3198 23.2143C15.3825 23.4332 15.3377 23.5599 15.1828 23.711C14.2622 24.6162 13.3545 25.5342 12.4314 26.4368C12.3239 26.5417 12.1421 26.625 11.9948 26.625C8.10148 26.6365 4.20683 26.6352 0.313459 26.6365C0.219997 26.6365 0.127816 26.6262 0.0049083 26.6198ZM4.13257 12.9822C4.26572 12.9822 4.37071 12.9822 4.47569 12.9822C8.15141 12.9822 11.8284 12.9847 15.5041 12.9822C17.0686 12.9822 18.0148 11.8158 17.7152 10.2603C17.6768 10.2564 17.6371 10.2475 17.5961 10.2475C13.7591 10.2475 9.92205 10.2398 6.0863 10.2615C5.75342 10.2628 5.38726 10.3896 5.09535 10.5586C4.17226 11.0925 4.02247 11.9707 4.13385 12.9834L4.13257 12.9822ZM4.13513 7.50892C4.72407 7.50892 5.2874 7.50892 5.852 7.50892C9.05146 7.50892 12.2509 7.5102 15.4491 7.50636C15.6923 7.50636 15.9446 7.50636 16.1788 7.45002C17.3273 7.17604 17.9226 6.15309 17.7216 4.80494C17.6448 4.79982 17.5616 4.78958 17.4796 4.78958C13.7258 4.78958 9.97199 4.78061 6.21817 4.80238C5.84176 4.80494 5.42311 4.90992 5.09791 5.09556C4.17994 5.62048 4.01094 6.49621 4.13513 7.50892ZM12.932 15.7028C12.8258 15.7028 12.7118 15.7028 12.5979 15.7028C11.5339 15.7028 10.4687 15.7028 9.40482 15.7028C8.33961 15.7028 7.27441 15.6989 6.20921 15.7028C4.84441 15.7079 3.82658 16.8435 4.16458 18.4273C4.20427 18.4298 4.24652 18.4362 4.28877 18.4362C6.50495 18.4362 8.71986 18.4362 10.936 18.4362C11.0423 18.4362 11.1499 18.4285 11.2536 18.4093C12.4916 18.1853 13.1727 17.1073 12.9333 15.7015L12.932 15.7028Z" fill="white" fill-opacity="0.8"/>
<path d="M22.5152 26.6378C19.5168 26.6262 17.0612 24.1578 17.0689 21.1658C17.0778 18.1494 19.5488 15.69 22.5588 15.7053C25.6263 15.7207 28.0256 18.2045 28 21.3386C27.977 24.2244 25.4663 26.6506 22.5152 26.639V26.6378Z" fill="white" fill-opacity="0.8"/>
<path d="M18.2058 27.4008C17.3582 28.2561 16.4991 29.1741 15.5825 30.0331C14.8284 30.7398 13.671 30.6976 12.9015 30.0088C12.712 29.8398 12.5418 29.6503 12.3856 29.4941C13.7183 28.1575 15.0383 26.835 16.3353 25.5342C16.9396 26.1372 17.5746 26.7709 18.2045 27.4008H18.2058Z" fill="white" fill-opacity="0.8"/>
</g>
<defs>
<clipPath id="clip0_71_1134">
<rect width="28" height="30.5427" fill="white"/>
</clipPath>
</defs>
</svg>
