<svg width="40" height="41" viewBox="0 0 40 41" fill="none" xmlns="http://www.w3.org/2000/svg">
<path d="M35.5488 20.0741C35.5488 24.5145 33.8265 28.5322 31.0497 31.4299L31.2381 31.6271L31.0431 31.821C28.1464 34.7428 24.3401 36.3518 20.3214 36.3518C11.7806 36.3518 4.83028 29.0485 4.83028 20.0731C4.83028 15.8713 6.35106 11.882 9.10939 8.84583L9.29459 8.64102L9.48305 8.8382C12.2446 5.89903 16.0804 4.07213 20.3235 4.07213C28.7325 4.07213 35.551 11.237 35.551 20.0731H35.5488V20.0741ZM9.3033 9.43192C6.75631 12.3406 5.35427 16.1088 5.35427 20.0741C5.35427 28.7468 12.0671 35.8016 20.3214 35.8016C24.1113 35.8016 27.714 34.3179 30.4854 31.6173L21.1994 21.8902C21.6482 21.5786 21.9544 21.0579 21.9979 20.462H32.2774V20.011H21.9751C21.8661 19.3519 21.4304 18.8115 20.853 18.5795V12.2567H19.586V18.5795C19.2331 18.7211 18.9324 18.975 18.7287 19.304L9.30439 9.43192H9.3033Z" fill="#641A2E"/>
<path fill-rule="evenodd" clip-rule="evenodd" d="M24.9273 31.1707H24.9306L24.9175 31.1598C24.8412 31.077 24.7628 31.004 24.6735 30.9343L14.6783 21.6821C14.6783 21.6821 14.4931 21.5437 14.3548 21.1134C14.2132 20.6831 14.1663 19.9249 14.1663 19.9249V17.5958C14.1663 17.5958 14.1663 16.5042 13.3482 15.6229C12.5268 14.746 11.4189 14.7285 10.3099 14.7285C9.20089 14.7285 7.74983 15.3734 7.74983 15.3734L10.9559 17.0925L11.1269 18.2745L10.6846 19.4946L9.72815 19.7092L6.8282 18.2745C6.8282 18.2745 6.94694 19.3835 7.33912 20.0948C7.7313 20.8062 8.46446 21.291 8.46446 21.291L12.9342 23.3706L22.425 33.3854C22.5078 33.4998 22.6069 33.6 22.7115 33.6904L22.7213 33.6969V33.6937C22.998 33.9192 23.3411 34.051 23.7181 34.051C24.6255 34.051 25.3576 33.2852 25.3576 32.3352C25.3576 31.8886 25.1931 31.479 24.9251 31.1707H24.9273ZM23.7192 33.1217C23.3063 33.1217 22.9675 32.7677 22.9675 32.3352C22.9675 31.9027 23.3074 31.5454 23.7192 31.5454C24.1309 31.5454 24.4676 31.8995 24.4676 32.3352C24.4676 32.771 24.1342 33.1217 23.7192 33.1217ZM12.444 22.5285L10.8905 21.7387L12.1542 19.1395L13.602 19.8955L12.444 22.5296V22.5285Z" fill="#641A2E"/>
<path fill-rule="evenodd" clip-rule="evenodd" d="M20.1895 2.38467C29.5354 2.38467 37.1557 10.3917 37.1557 20.2125C37.1557 30.0333 29.5354 38.0403 20.1895 38.0403C10.8437 38.0403 3.22342 30.0333 3.22342 20.2125C3.22342 10.3917 10.8437 2.38467 20.1895 2.38467ZM20.1895 0C30.786 0 39.4249 9.08223 39.4249 20.2125C39.4249 31.3428 30.7849 40.425 20.1895 40.425C9.59416 40.425 0.954224 31.346 0.954224 20.2125C0.954224 9.07896 9.59416 0 20.1895 0Z" fill="#641A2E"/>
</svg>
