<svg width="208" height="118" viewBox="0 0 208 118" fill="none" xmlns="http://www.w3.org/2000/svg">
<g clip-path="url(#clip0_124_484)">
<path d="M207.997 18.5447C190.628 14.6171 172.578 27.894 160.885 40.1511C150.982 50.5426 141.078 61.8149 128.362 68.3136C120.649 72.2548 112.333 74.2261 103.998 74.2261C95.6644 74.2261 87.3469 72.2548 79.6398 68.3136C66.9189 61.8149 57.0153 50.5426 47.1116 40.1511C35.424 27.9075 17.3646 14.6171 0 18.5447V0.989845C16.8842 -0.61141 32.8665 12.4826 43.4982 25.2307C46.9425 29.3502 50.077 33.7582 53.42 38.3429C59.9655 47.3024 66.727 55.2769 74.7741 61.0218C83.4511 67.2184 93.7218 70.3227 104 70.3227C114.278 70.3227 124.544 67.2169 133.217 61.0218C141.264 55.2784 148.033 47.3039 154.575 38.3429C157.925 33.7567 161.062 29.3487 164.502 25.2307C175.127 12.4826 191.12 -0.6099 208 0.989845V18.5447H207.997Z" fill="white"/>
<path d="M125.561 27.8359C125.561 33.9932 123.173 39.5644 119.322 43.5826L119.584 43.856L119.313 44.1249C115.296 48.1764 110.018 50.4076 104.446 50.4076C92.6024 50.4076 82.9646 40.2804 82.9646 27.8344C82.9646 22.008 85.0735 16.4761 88.8983 12.266L89.1552 11.982L89.4165 12.2554C93.2459 8.17979 98.5648 5.64648 104.449 5.64648C116.109 5.64648 125.564 15.5818 125.564 27.8344H125.561V27.8359ZM89.1672 13.0787C85.6354 17.1121 83.6913 22.3373 83.6913 27.8359C83.6913 39.862 92.9997 49.6447 104.446 49.6447C109.701 49.6447 114.697 47.5873 118.54 43.8425L105.663 30.3541C106.286 29.9221 106.71 29.2 106.77 28.3737H121.025V27.7483H106.739C106.588 26.8344 105.983 26.0851 105.183 25.7634V16.9958H103.426V25.7634C102.937 25.9598 102.52 26.3117 102.237 26.7679L89.1688 13.0787H89.1672Z" fill="#641A2E"/>
<path fill-rule="evenodd" clip-rule="evenodd" d="M110.833 43.2236H110.837L110.819 43.2085C110.713 43.0937 110.604 42.9925 110.481 42.8958L96.6206 30.0661C96.6206 30.0661 96.3638 29.8743 96.172 29.2776C95.9756 28.6809 95.9106 27.6295 95.9106 27.6295V24.3998C95.9106 24.3998 95.9106 22.8861 94.7762 21.664C93.6372 20.448 92.1009 20.4238 90.563 20.4238C89.0252 20.4238 87.0131 21.3181 87.0131 21.3181L91.4588 23.7019L91.696 25.3409L91.0827 27.0328L89.7564 27.3304L85.7351 25.3409C85.7351 25.3409 85.8998 26.8787 86.4436 27.8651C86.9874 28.8516 88.0041 29.5238 88.0041 29.5238L94.2021 32.4076L107.363 46.2947C107.477 46.4533 107.615 46.5923 107.76 46.7176L107.774 46.7267V46.7222C108.157 47.0349 108.633 47.2177 109.156 47.2177C110.414 47.2177 111.429 46.1557 111.429 44.8384C111.429 44.2191 111.201 43.6511 110.829 43.2236H110.833ZM109.157 45.9291C108.585 45.9291 108.115 45.4382 108.115 44.8384C108.115 44.2387 108.586 43.7432 109.157 43.7432C109.728 43.7432 110.195 44.2342 110.195 44.8384C110.195 45.4427 109.733 45.9291 109.157 45.9291ZM93.5223 31.2399L91.3682 30.1447L93.1205 26.5403L95.1281 27.5887L93.5223 31.2414V31.2399Z" fill="#641A2E"/>
<path d="M93.3078 29.6533H92.3244V29.9328H93.3078V29.6533Z" fill="#641A2E"/>
<path d="M93.5722 29.1387H92.5888V29.4181H93.5722V29.1387Z" fill="#641A2E"/>
<path d="M93.8426 28.625H92.8546V28.909H93.8426V28.625Z" fill="#641A2E"/>
<path d="M94.1085 28.1094H93.1205V28.3934H94.1085V28.1094Z" fill="#641A2E"/>
<path d="M94.3728 27.6006H93.3849V27.88H94.3728V27.6006Z" fill="#641A2E"/>
<path fill-rule="evenodd" clip-rule="evenodd" d="M104.263 3.30674C117.222 3.30674 127.789 14.4098 127.789 28.028C127.789 41.6462 117.222 52.7493 104.263 52.7493C91.3033 52.7493 80.7365 41.6462 80.7365 28.028C80.7365 14.4098 91.3033 3.30674 104.263 3.30674ZM104.263 0C118.957 0 130.936 12.594 130.936 28.028C130.936 43.462 118.955 56.056 104.263 56.056C89.5706 56.056 77.5899 43.4665 77.5899 28.028C77.5899 12.5895 89.5706 0 104.263 0Z" fill="#641A2E"/>
<path d="M2.02423 116.523V87.3193H10.4082L15.4415 107.24L20.419 87.3193H28.8211V116.523H23.617V93.534L18.1093 116.523H12.7164L7.22831 93.534V116.523H2.02423Z" fill="white"/>
<path d="M33.7412 108.734V103.136H44.1871V108.734H33.7412Z" fill="white"/>
<path d="M65.0427 105.785L70.4734 107.598C69.641 110.785 68.2558 113.152 66.3192 114.699C64.3825 116.246 61.9248 117.02 58.9473 117.02C55.2629 117.02 52.2357 115.695 49.864 113.045C47.4923 110.396 46.3065 106.773 46.3065 102.178C46.3065 97.3166 47.4984 93.5416 49.8836 90.8527C52.2689 88.1638 55.4034 86.8193 59.2887 86.8193C62.6831 86.8193 65.44 87.8753 67.5594 89.9871C68.8207 91.2349 69.7664 93.028 70.3978 95.3664L64.8523 96.7607C64.5245 95.2471 63.8402 94.0522 62.7994 93.1745C61.7586 92.2983 60.4942 91.8603 59.0047 91.8603C56.9488 91.8603 55.2796 92.6367 53.9986 94.1912C52.7175 95.7456 52.077 98.2623 52.077 101.741C52.077 105.433 52.7085 108.063 53.9699 109.63C55.2312 111.198 56.8717 111.98 58.8899 111.98C60.3779 111.98 61.6589 111.482 62.7314 110.486C63.804 109.491 64.5729 107.923 65.0397 105.785H65.0427Z" fill="white"/>
<path d="M75.2816 116.523V87.3193H95.8532V92.2591H80.883V98.7336H94.8109V103.654H80.883V111.603H96.3819V116.523H75.2801H75.2816Z" fill="white"/>
<path d="M101.133 116.523V87.3193H110.123C113.529 87.3193 115.75 87.4659 116.784 87.7574C118.374 88.1955 119.704 89.1487 120.777 90.6155C121.849 92.0838 122.386 93.9797 122.386 96.303C122.386 98.0961 122.076 99.6037 121.458 100.824C120.84 102.046 120.055 103.006 119.102 103.704C118.148 104.401 117.182 104.862 116.197 105.089C114.86 105.368 112.923 105.507 110.387 105.507H106.734V116.523H101.133ZM106.734 92.2591V100.546H109.799C112.008 100.546 113.484 100.394 114.227 100.089C114.972 99.7835 115.555 99.3046 115.978 98.6535C116.401 98.0024 116.612 97.2456 116.612 96.383C116.612 95.3211 116.316 94.4449 115.722 93.7531C115.129 93.0627 114.379 92.6307 113.47 92.4585C112.801 92.3255 111.458 92.2591 109.438 92.2591H106.733H106.734Z" fill="white"/>
<path d="M127.002 87.3193H138.092C140.287 87.3193 141.924 87.416 143.003 87.6079C144.081 87.8012 145.047 88.203 145.899 88.8133C146.75 89.4236 147.459 90.2379 148.027 91.253C148.595 92.2696 148.879 93.4071 148.879 94.67C148.879 96.0386 148.528 97.2924 147.829 98.4345C147.128 99.5765 146.179 100.433 144.982 101.004C146.672 101.522 147.971 102.406 148.88 103.654C149.788 104.901 150.243 106.37 150.243 108.056C150.243 109.383 149.95 110.675 149.362 111.93C148.775 113.186 147.974 114.189 146.959 114.938C145.944 115.689 144.692 116.149 143.202 116.323C142.268 116.429 140.016 116.495 136.447 116.523H127.004V87.3193H127.002ZM132.604 92.1805V98.9345H136.274C138.457 98.9345 139.814 98.9013 140.342 98.8348C141.302 98.7154 142.055 98.3665 142.604 97.7894C143.152 97.2124 143.427 96.451 143.427 95.5084C143.427 94.5658 143.19 93.8724 142.717 93.3074C142.244 92.7425 141.54 92.4011 140.607 92.2817C140.051 92.2153 138.456 92.182 135.818 92.182H132.601L132.604 92.1805ZM132.604 103.794V111.603H137.79C139.808 111.603 141.089 111.542 141.631 111.423C142.463 111.263 143.142 110.874 143.666 110.258C144.188 109.64 144.451 108.814 144.451 107.778C144.451 106.901 144.249 106.158 143.846 105.546C143.442 104.936 142.858 104.491 142.095 104.211C141.332 103.932 139.675 103.793 137.126 103.793H132.604V103.794Z" fill="white"/>
<path d="M155.048 87.3193H160.29V106.763L171.532 87.3193H177.115V116.523H171.874V97.4586L160.651 116.523H155.05V87.3193H155.048Z" fill="white"/>
<path d="M200.581 105.785L206.014 107.598C205.181 110.785 203.796 113.152 201.859 114.699C199.923 116.246 197.465 117.02 194.488 117.02C190.803 117.02 187.776 115.695 185.404 113.045C183.033 110.396 181.847 106.773 181.847 102.178C181.847 97.3166 183.039 93.5416 185.424 90.8527C187.809 88.1638 190.944 86.8193 194.829 86.8193C198.223 86.8193 200.979 87.8753 203.1 89.9871C204.361 91.2349 205.307 93.028 205.938 95.3664L200.393 96.7607C200.065 95.2471 199.38 94.0522 198.34 93.1745C197.299 92.2983 196.034 91.8603 194.545 91.8603C192.489 91.8603 190.82 92.6367 189.539 94.1912C188.258 95.7456 187.617 98.2623 187.617 101.741C187.617 105.433 188.249 108.063 189.51 109.63C190.771 111.198 192.412 111.98 194.43 111.98C195.918 111.98 197.199 111.482 198.272 110.486C199.344 109.491 200.113 107.923 200.58 105.785H200.581Z" fill="white"/>
</g>
<defs>
<clipPath id="clip0_124_484">
<rect width="208" height="117.022" fill="white"/>
</clipPath>
</defs>
</svg>
