<?xml version="1.0" encoding="utf-8"?><svg viewBox="0 0 62 63" xmlns="http://www.w3.org/2000/svg" xmlns:xlink="http://www.w3.org/1999/xlink"><style>:root>svg{display:none}:root>svg:target{display:block}</style><svg viewBox="0 0 24 24" id="close" xmlns="http://www.w3.org/2000/svg"><path d="M23.361 21.15l-9.302-9.29 9.303-9.184.317-.317c.317-.422.422-.95.211-1.372-.211-.422-.529-.845-1.057-.95-.529-.106-1.057 0-1.586.528l-9.302 9.29-6.66-6.651L2.643.564C2.22.038 1.69-.068 1.163.038.634.142.21.565 0 1.092v.74c.106.422.423.738.74 1.055l9.09 9.079-9.09 9.078c-.317.317-.634.634-.74 1.056v.633c.211.634.529 1.056 1.163 1.267h.634c.423-.106.74-.422 1.057-.633l9.091-9.079 9.09 9.079c.318.316.53.527.952.633h.635l.21-.106c.53-.21.952-.738.952-1.372.106-.633-.105-.95-.422-1.372z"/></svg><svg viewBox="0 0 27 24" id="email" xmlns="http://www.w3.org/2000/svg"><path fill-rule="evenodd" clip-rule="evenodd" d="M0 3.13A3.13 3.13 0 013.13 0h20.522a3.13 3.13 0 013.13 3.13v.714l-12.59 9.207a1.504 1.504 0 01-.8.215c-.323 0-.606-.09-.8-.215L0 3.844V3.13zm0 3.85v13.89A3.13 3.13 0 003.13 24h20.522a3.13 3.13 0 003.13-3.13V6.98l-11.15 8.247-.013.008a4.103 4.103 0 01-2.228.64 4.103 4.103 0 01-2.228-.64l-.012-.008L0 6.98z"/></svg><svg viewBox="0 0 15 20" id="location" xmlns="http://www.w3.org/2000/svg"><path d="M7.5 0C3.366 0 0 3.333 0 7.427c0 .702.295 1.696.827 2.865C2.42 13.86 5.965 18.187 7.5 20c1.535-1.813 5.079-6.14 6.673-9.708.532-1.17.827-2.163.827-2.865C15 3.333 11.634 0 7.5 0zm0 10.702c-1.83 0-3.366-1.462-3.366-3.334 0-1.87 1.476-3.333 3.366-3.333 1.89 0 3.366 1.462 3.366 3.333 0 1.872-1.476 3.334-3.366 3.334z"/></svg><svg viewBox="0 0 62 63" id="message" xmlns="http://www.w3.org/2000/svg"><g clip-path="url(#dclip0_71_1371)"><path d="M23.249.14C10.431.14-.001 10.567-.001 23.39v23.25h23.25c12.819 0 23.25-10.43 23.25-23.25 0-12.822-10.431-23.25-23.25-23.25zM11.624 27.263a3.876 3.876 0 01-3.875-3.875 3.876 3.876 0 013.875-3.875 3.876 3.876 0 013.875 3.875 3.876 3.876 0 01-3.875 3.875zm11.625 0a3.876 3.876 0 01-3.875-3.875 3.876 3.876 0 013.875-3.875 3.876 3.876 0 013.875 3.875 3.876 3.876 0 01-3.875 3.875zm11.625 0a3.876 3.876 0 01-3.875-3.875 3.876 3.876 0 013.875-3.875 3.876 3.876 0 013.875 3.875 3.876 3.876 0 01-3.875 3.875zm27.125 14.208V62.14H41.332c-7.633 0-14.298-4.172-17.876-10.344 15.502-.11 28.086-12.697 28.2-28.2 6.17 3.579 10.343 10.244 10.343 17.877z"/></g><defs><clipPath id="dclip0_71_1371"><path transform="translate(-.001 .14)" d="M0 0h62v62H0z"/></clipPath></defs></svg><svg viewBox="0 0 25 24" id="phone" xmlns="http://www.w3.org/2000/svg"><path d="M.783 5.372C.765 4.28 1.09 3.34 1.92 2.581c.651-.596 1.265-1.235 1.882-1.869C4.78-.293 6.3-.18 7.219.716c1.08 1.055 2.144 2.127 3.208 3.197.965.972.984 2.42.026 3.296-.223.205-.517.352-.8.469-.795.33-1.32.874-1.498 1.726-.109.523.059 1.007.24 1.482.478 1.25 1.284 2.282 2.223 3.215.95.944 2.005 1.743 3.26 2.25.832.337 1.631.322 2.392-.192.396-.268.677-.634.82-1.084.466-1.482 2.491-2.059 3.773-.758 1.065 1.08 2.15 2.142 3.218 3.22.163.164.314.353.422.556.491.916.32 2.073-.413 2.815-.725.735-1.46 1.46-2.192 2.189-.623.621-1.403.857-2.257.895-1 .045-1.96-.179-2.898-.495-1.84-.62-3.502-1.584-5.074-2.703a33.05 33.05 0 01-6.918-6.639c-1.449-1.857-2.686-3.84-3.455-6.084C.998 7.199.79 6.303.783 5.372z"/></svg><svg viewBox="0 0 16 16" id="search" xmlns="http://www.w3.org/2000/svg"><path d="M6.594 13.177A6.596 6.596 0 01.005 6.59 6.596 6.596 0 016.595 0a6.596 6.596 0 016.588 6.589 6.596 6.596 0 01-6.589 6.588zm0-11.928a5.346 5.346 0 00-5.34 5.34 5.346 5.346 0 005.34 5.34 5.346 5.346 0 005.34-5.34 5.346 5.346 0 00-5.34-5.34zm9.216 14.568a.625.625 0 000-.883l-2.795-2.795a.624.624 0 10-.883.883l2.795 2.795a.623.623 0 00.883 0z"/></svg><svg viewBox="0 0 24 20" id="telegram" xmlns="http://www.w3.org/2000/svg"><path d="M23.832 1.16c-.028.632-.13 1.253-.263 1.868-.42 1.946-.831 3.893-1.28 5.832-.565 2.448-1.163 4.888-1.75 7.33-.206.861-.418 1.72-.633 2.58-.08.32-.241.598-.52.784-.378.25-.783.228-1.168.036-.226-.112-.421-.287-.626-.44-.74-.551-1.467-1.122-2.221-1.656-1.326-.938-2.665-1.857-4.002-2.78-.6-.414-1.209-.816-1.813-1.224-.194-.131-.204-.276-.028-.434 1.074-.968 2.155-1.928 3.22-2.905a310.527 310.527 0 003.84-3.57c.742-.704 1.454-1.442 2.172-2.173.169-.172.31-.373.457-.566.032-.042.03-.11.042-.166-.063.003-.14-.016-.19.013-.484.274-.97.548-1.445.839-1.446.885-2.891 1.773-4.33 2.67-1.972 1.23-3.938 2.47-5.907 3.705-.338.212-.676.423-1.01.64a.46.46 0 01-.417.047l-3.486-1.134c-.58-.19-1.16-.375-1.737-.569a.751.751 0 01-.47-.41.58.58 0 01.126-.655c.18-.18.398-.303.63-.398 1.118-.46 2.23-.933 3.36-1.366a650.513 650.513 0 016.697-2.522c2.365-.877 4.736-1.737 7.105-2.601 1.422-.519 2.846-1.033 4.27-1.547.239-.086.487-.134.743-.125.347.013.551.189.602.53.018.121.021.245.031.368h.001z"/></svg><svg viewBox="0 0 23 23" id="time" xmlns="http://www.w3.org/2000/svg"><g clip-path="url(#hclip0_124_412)"><path d="M18.358 22.131H.025V7.465h1.833v12.833h16.5v1.833zm3.667-15.583V4.715a2.753 2.753 0 00-2.75-2.75h-1.833V.13h-1.834v1.834h-5.5V.13H8.275v1.834H6.442a2.753 2.753 0 00-2.75 2.75v1.833h18.333zM3.692 8.381v10.084h18.333V8.38H3.692z"/></g><defs><clipPath id="hclip0_124_412"><path transform="translate(.025 .131)" d="M0 0h22v22H0z"/></clipPath></defs></svg><svg viewBox="0 0 24 24" id="whatsapp" xmlns="http://www.w3.org/2000/svg"><g clip-path="url(#iclip0_124_126)"><path d="M23.217 11.969c-.038.529-.06 1.035-.115 1.538-.035.316-.111.628-.185.938-.09.377-.17.76-.3 1.124-.166.462-.354.918-.573 1.357-.239.48-.502.95-.797 1.396-.262.395-.57.762-.881 1.12a8.895 8.895 0 01-1.4 1.327c-.46.34-.93.672-1.42.963-.434.257-.896.47-1.36.669-.371.159-.76.28-1.149.393-.352.103-.71.181-1.07.255-.22.045-.448.052-.67.09-.667.115-1.338.072-2.007.064-.308-.004-.616-.07-.923-.111a9.864 9.864 0 01-1.26-.247c-.284-.079-.57-.157-.846-.261a16.668 16.668 0 01-1.037-.44c-.242-.111-.47-.25-.711-.363a.341.341 0 00-.23-.006c-.36.12-.715.255-1.074.38-.28.097-.562.184-.842.28-.38.131-.758.267-1.137.398-.292.102-.586.2-.879.3-.045.016-.086.053-.131.06a.294.294 0 01-.163-.02c-.021-.01-.027-.08-.02-.12.063-.334.128-.667.196-1 .06-.294.128-.585.184-.879.055-.282.097-.566.15-.849.033-.177.079-.352.114-.53.034-.165.06-.33.092-.495.036-.187.066-.375.113-.56.029-.113.005-.194-.06-.294-.23-.347-.464-.696-.657-1.064a17.142 17.142 0 01-.664-1.42c-.133-.321-.215-.664-.314-1-.066-.224-.137-.448-.18-.677a11.433 11.433 0 01-.157-1.065c-.04-.46-.084-.922-.07-1.382.019-.571.074-1.143.152-1.71.057-.415.155-.828.274-1.23.27-.909.635-1.778 1.12-2.594.426-.717.923-1.38 1.493-1.988.48-.51 1.002-.97 1.566-1.385a10.077 10.077 0 012.077-1.198c.426-.179.862-.342 1.304-.477.437-.135.886-.237 1.335-.33.267-.055.543-.078.816-.092A37.558 37.558 0 0112.53.782a6.02 6.02 0 01.888.064c.376.054.75.127 1.12.212.33.076.661.163.981.274a11.264 11.264 0 014.776 3.138c.587.65 1.095 1.353 1.514 2.121.305.557.577 1.128.766 1.734.141.45.281.903.385 1.364.082.362.117.735.157 1.106.044.397.07.796.1 1.174zM4.345 20.553c.078-.02.128-.028.176-.045.159-.058.315-.12.474-.176.453-.16.906-.321 1.363-.472.135-.045.27-.11.425-.003.45.308.923.58 1.43.786.384.156.773.306 1.167.436.229.075.47.114.708.157.375.068.749.148 1.127.179.406.033.816.017 1.226.018.146 0 .294-.004.438-.024.268-.035.534-.078.8-.126.25-.045.504-.085.748-.156.313-.091.62-.201.924-.32.322-.126.65-.244.948-.413.477-.272.944-.564 1.39-.882.62-.439 1.152-.978 1.625-1.57.252-.314.496-.64.697-.989.264-.46.493-.94.716-1.422.118-.255.2-.528.285-.798.075-.239.135-.483.192-.727.036-.151.056-.305.08-.458.04-.249.095-.497.11-.748.022-.368.02-.739.02-1.108 0-.2-.008-.4-.03-.599-.03-.255-.073-.509-.118-.762-.045-.255-.084-.514-.154-.762-.092-.322-.201-.64-.324-.95a9.154 9.154 0 00-.448-1.005 10.94 10.94 0 00-.695-1.117 7.817 7.817 0 00-.807-.99c-.384-.387-.795-.75-1.225-1.085a8.1 8.1 0 00-1.106-.711c-.395-.215-.81-.4-1.228-.565a9.228 9.228 0 00-1.049-.323 7.555 7.555 0 00-.78-.151c-.31-.048-.621-.105-.933-.115-.528-.017-1.056-.036-1.582.051-.227.038-.461.04-.684.092-.403.094-.8.207-1.196.327a7.195 7.195 0 00-.823.293 9.48 9.48 0 00-1.62.911A9.518 9.518 0 004.477 6.28a9.584 9.584 0 00-1.501 2.905c-.098.305-.153.625-.224.938-.032.143-.059.286-.079.43-.04.293-.102.588-.102.882 0 .6.03 1.2.058 1.799.009.176.05.35.089.524.056.255.115.509.189.76.091.312.177.63.304.93.172.405.375.8.577 1.192.252.492.586.931.93 1.361.059.073.084.134.066.228-.084.431-.157.864-.24 1.296-.033.177-.085.35-.12.528-.03.155-.048.312-.077.501z"/><path d="M7.994 6.392c.201.027.403.049.603.081.255.041.398.217.493.44.248.579.494 1.157.738 1.737.08.187.179.371.22.567a.897.897 0 01-.231.826c-.192.21-.377.425-.565.638-.139.156-.162.479-.044.648.378.543.768 1.079 1.216 1.568.454.495.95.935 1.56 1.231.413.202.826.406 1.244.598.15.068.31.055.429-.08.177-.2.35-.402.52-.607.147-.178.284-.365.434-.539.223-.257.505-.335.82-.175.659.334 1.324.656 1.987.983.064.031.128.061.194.087.293.115.444.33.403.643-.04.297-.11.591-.172.885-.057.272-.226.48-.42.666-.413.4-.88.723-1.434.888-.477.142-.965.126-1.45.035a10.21 10.21 0 01-.751-.161 6.48 6.48 0 01-.717-.231c-.431-.17-.868-.332-1.28-.542-.47-.238-.921-.515-1.37-.792a5.648 5.648 0 01-1.165-.99A92.675 92.675 0 017.76 13.15a8.52 8.52 0 01-1.158-1.673 4.723 4.723 0 01-.464-1.322c-.087-.455-.17-.906-.164-1.37.006-.364.076-.714.29-1.019.215-.303.427-.61.655-.904.27-.348.624-.522 1.082-.428l-.004-.041-.002-.001z"/></g><defs><clipPath id="iclip0_124_126"><path transform="translate(.783 .783)" d="M0 0h22.435v22.435H0z"/></clipPath></defs></svg></svg>