<svg width="27" height="24" viewBox="0 0 27 24" fill="none" xmlns="http://www.w3.org/2000/svg">
<path fill-rule="evenodd" clip-rule="evenodd" d="M0 3.13043C0 1.40154 1.40154 0 3.13043 0H23.6522C25.381 0 26.7826 1.40154 26.7826 3.13043V3.84407L14.1914 13.0514C13.9967 13.1766 13.714 13.266 13.3913 13.266C13.0686 13.266 12.7859 13.1766 12.5911 13.0514L0 3.84409V3.13043ZM0 6.97951V20.8696C0 22.5984 1.40154 24 3.13043 24H23.6522C25.381 24 26.7826 22.5984 26.7826 20.8696V6.97949L15.6314 15.2267L15.6194 15.2347C14.9628 15.6621 14.1742 15.8747 13.3913 15.8747C12.6084 15.8747 11.8199 15.662 11.1632 15.2346L11.1511 15.2267L0 6.97951Z" fill="#641A2E"/>
</svg>
