<svg width="15" height="20" viewBox="0 0 15 20" fill="none" xmlns="http://www.w3.org/2000/svg">
<path d="M7.5 0C3.36614 0 0 3.33333 0 7.4269C0 8.12865 0.295276 9.12281 0.826772 10.2924C2.42126 13.8596 5.96457 18.1871 7.5 20C9.03543 18.1871 12.5787 13.8596 14.1732 10.2924C14.7047 9.12281 15 8.12865 15 7.4269C15 3.33333 11.6339 0 7.5 0ZM7.5 10.7018C5.66929 10.7018 4.13386 9.23977 4.13386 7.36842C4.13386 5.49708 5.61024 4.03509 7.5 4.03509C9.38976 4.03509 10.8661 5.49708 10.8661 7.36842C10.8661 9.23977 9.38976 10.7018 7.5 10.7018Z" fill="#641A2E"/>
</svg>
