<svg width="62" height="63" viewBox="0 0 62 63" fill="none" xmlns="http://www.w3.org/2000/svg">
<g clip-path="url(#clip0_71_1371)">
<path d="M23.249 0.13916C10.4305 0.13916 -0.000976562 10.5681 -0.000976562 23.3892V46.6392H23.249C36.0675 46.6392 46.499 36.2102 46.499 23.3892C46.499 10.5681 36.0675 0.13916 23.249 0.13916ZM11.624 27.2642C9.48502 27.2642 7.74902 25.5282 7.74902 23.3892C7.74902 21.2502 9.48502 19.5142 11.624 19.5142C13.763 19.5142 15.499 21.2502 15.499 23.3892C15.499 25.5282 13.763 27.2642 11.624 27.2642ZM23.249 27.2642C21.11 27.2642 19.374 25.5282 19.374 23.3892C19.374 21.2502 21.11 19.5142 23.249 19.5142C25.388 19.5142 27.124 21.2502 27.124 23.3892C27.124 25.5282 25.388 27.2642 23.249 27.2642ZM34.874 27.2642C32.735 27.2642 30.999 25.5282 30.999 23.3892C30.999 21.2502 32.735 19.5142 34.874 19.5142C37.013 19.5142 38.749 21.2502 38.749 23.3892C38.749 25.5282 37.013 27.2642 34.874 27.2642ZM61.999 41.4725V62.1392H41.3324C33.6986 62.1392 27.0336 57.9671 23.4557 51.7955C38.9583 51.6844 51.5417 39.0984 51.6554 23.5958C57.8269 27.1737 61.999 33.8387 61.999 41.4725Z" fill="white"/>
</g>
<defs>
<clipPath id="clip0_71_1371">
<rect width="62" height="62" fill="white" transform="translate(-0.000976562 0.13916)"/>
</clipPath>
</defs>
</svg>
