<svg width="25" height="24" viewBox="0 0 25 24" fill="none" xmlns="http://www.w3.org/2000/svg">
<path d="M0.782553 5.37231C0.764694 4.27996 1.09085 3.34043 1.9208 2.58094C2.57217 1.9846 3.18594 1.34606 3.80253 0.712211C4.78099 -0.292946 6.2999 -0.181366 7.21915 0.715961C8.29912 1.77081 9.36311 2.84254 10.4271 3.91334C11.3924 4.88474 11.4112 6.3334 10.4534 7.20916C10.2297 7.41357 9.93647 7.56078 9.65261 7.67799C8.85837 8.0071 8.33296 8.55187 8.15531 9.40419C8.04628 9.9274 8.21359 10.4112 8.39499 10.8857C8.87341 12.1365 9.67893 13.1679 10.6179 14.1009C11.5672 15.0451 12.6228 15.844 13.8785 16.3512C14.7103 16.6878 15.5093 16.6728 16.2697 16.159C16.6663 15.8908 16.9474 15.5252 17.0893 15.0751C17.5564 13.5927 19.581 13.016 20.8631 14.3165C21.928 15.3976 23.0127 16.459 24.0814 17.5364C24.244 17.7005 24.3953 17.8899 24.5034 18.0934C24.994 19.0085 24.823 20.1656 24.0898 20.9082C23.3652 21.6433 22.6292 22.3681 21.8979 23.0966C21.2748 23.7183 20.4946 23.9537 19.6412 23.9921C18.6402 24.0371 17.6814 23.813 16.7434 23.497C14.903 22.8772 13.2412 21.9133 11.6687 20.7938C9.0379 18.9194 6.73415 16.7 4.75091 14.1552C3.30249 12.2978 2.06461 10.3146 1.29575 8.07086C0.997795 7.19885 0.791012 6.3034 0.782553 5.37231Z" fill="#641A2E"/>
</svg>
