<svg width="24" height="20" viewBox="0 0 24 20" fill="none" xmlns="http://www.w3.org/2000/svg">
<path d="M23.8323 1.16077C23.8038 1.79236 23.7019 2.41343 23.5692 3.02828C23.1493 4.97361 22.738 6.92128 22.2897 8.86C21.7239 11.3077 21.1261 13.7477 20.5393 16.1907C20.3327 17.0511 20.121 17.9103 19.9062 18.7692C19.826 19.0898 19.6649 19.3681 19.3851 19.5537C19.0084 19.8043 18.6033 19.7821 18.2181 19.5903C17.9924 19.4778 17.797 19.3035 17.5923 19.1509C16.8518 18.5987 16.1245 18.0279 15.3707 17.4943C14.0453 16.5557 12.7062 15.6366 11.3691 14.7143C10.7687 14.3002 10.1604 13.8979 9.55571 13.4897C9.36191 13.3589 9.35218 13.2141 9.52769 13.0558C10.6017 12.0876 11.6832 11.1279 12.7486 10.1508C14.0363 8.96974 15.3201 7.78402 16.5875 6.58156C17.3304 5.87682 18.0418 5.139 18.7598 4.40819C18.929 4.2358 19.0707 4.035 19.217 3.84159C19.2485 3.79956 19.2462 3.73185 19.2594 3.67582C19.1956 3.67893 19.1193 3.66025 19.0699 3.68866C18.585 3.96339 18.099 4.23696 17.6235 4.52804C16.1778 5.41335 14.7329 6.3006 13.2942 7.19796C11.322 8.42805 9.35569 9.66748 7.387 10.903C7.04922 11.1151 6.71067 11.3256 6.37678 11.5435C6.24136 11.6319 6.10438 11.6365 5.95962 11.5899C4.79725 11.2124 3.63565 10.8337 2.47366 10.4555C1.89423 10.2668 1.31401 10.0807 0.73652 9.88734C0.526382 9.81691 0.359439 9.6846 0.266822 9.4768C0.166034 9.2507 0.217401 8.99776 0.393294 8.82226C0.573468 8.64286 0.791 8.51911 1.02254 8.42377C2.14094 7.96458 3.2539 7.49099 4.38242 7.05826C6.60988 6.20409 8.84357 5.36548 11.0804 4.53583C13.4448 3.65908 15.8159 2.79907 18.185 1.93478C19.6069 1.41605 21.0308 0.901993 22.4547 0.387933C22.694 0.301543 22.9419 0.254067 23.1983 0.263407C23.5451 0.275859 23.749 0.451753 23.7996 0.793033C23.8179 0.914446 23.821 1.03819 23.8311 1.16077H23.8323Z" fill="#0084FF"/>
</svg>
