<svg width="24" height="24" viewBox="0 0 24 24" fill="none" xmlns="http://www.w3.org/2000/svg">
<g clip-path="url(#clip0_124_126)">
<path d="M23.2167 11.9685C23.1794 12.4977 23.1575 13.0044 23.102 13.5074C23.0673 13.8227 22.991 14.1354 22.9174 14.4449C22.8277 14.8223 22.7461 15.205 22.6164 15.569C22.4515 16.0309 22.2631 16.4874 22.0443 16.9262C21.8052 17.4051 21.5422 17.8766 21.2465 18.3224C20.985 18.7174 20.6771 19.0841 20.366 19.4427C19.9433 19.9297 19.4839 20.384 18.9657 20.7689C18.5062 21.1099 18.0366 21.4408 17.5451 21.7321C17.1118 21.9887 16.6502 22.202 16.1865 22.4008C15.815 22.5596 15.4255 22.6809 15.037 22.7942C14.6853 22.8968 14.3262 22.9754 13.967 23.0487C13.7466 23.0936 13.5188 23.1005 13.2968 23.139C12.6302 23.2544 11.9589 23.2111 11.2897 23.2026C10.9818 23.1989 10.6739 23.1336 10.3665 23.0919C10.1696 23.0652 9.9732 23.0369 9.77841 22.9984C9.55322 22.954 9.32802 22.9059 9.10709 22.845C8.82265 22.7664 8.53661 22.6878 8.26072 22.5836C7.90958 22.4511 7.56537 22.2992 7.22384 22.1432C6.9821 22.0325 6.7537 21.8935 6.51302 21.7813C6.44845 21.7514 6.35293 21.7519 6.28355 21.7749C5.92334 21.8951 5.56793 22.0304 5.20932 22.1549C4.92969 22.2522 4.64739 22.3393 4.36722 22.4356C3.98726 22.566 3.60944 22.7017 3.23002 22.8332C2.93758 22.9348 2.64407 23.0321 2.3511 23.1331C2.30574 23.1486 2.26518 23.186 2.21982 23.1924C2.16646 23.1999 2.10402 23.1967 2.05706 23.1737C2.03571 23.1636 2.03038 23.093 2.03785 23.0535C2.10028 22.7194 2.16539 22.3858 2.23316 22.0523C2.29293 21.7594 2.3607 21.4681 2.41727 21.1741C2.4717 20.8918 2.51386 20.6075 2.56669 20.3252C2.59978 20.1478 2.64567 19.9725 2.68143 19.795C2.71505 19.6304 2.74173 19.4647 2.77321 19.3C2.80897 19.1135 2.83939 18.9253 2.88581 18.7409C2.91463 18.6271 2.89115 18.5463 2.82551 18.4464C2.59551 18.0989 2.3623 17.7504 2.16859 17.3821C1.92578 16.9198 1.70485 16.4446 1.50527 15.9619C1.37239 15.6407 1.28967 15.298 1.19095 14.9629C1.12477 14.7384 1.05433 14.5139 1.01164 14.2846C0.946002 13.9318 0.886234 13.5763 0.854215 13.2198C0.813124 12.7606 0.770432 12.2977 0.78484 11.838C0.802984 11.2666 0.858484 10.6947 0.936396 10.1281C0.993497 9.71277 1.09062 9.29959 1.20962 8.89709C1.47912 7.98946 1.8452 7.12033 2.33029 6.30411C2.75614 5.58731 3.2535 4.92396 3.82343 4.31567C4.30212 3.8052 4.82509 3.34658 5.38862 2.93072C6.03701 2.45231 6.72488 2.04501 7.46612 1.73338C7.8925 1.55431 8.32796 1.39128 8.76982 1.25551C9.20741 1.12135 9.65567 1.01872 10.1045 0.92571C10.3718 0.870654 10.6483 0.848204 10.9215 0.834306C11.4573 0.80758 11.9936 0.786199 12.5294 0.782457C12.8255 0.780319 13.1244 0.804373 13.4174 0.846066C13.793 0.900053 14.1671 0.972748 14.537 1.05774C14.8678 1.13364 15.1981 1.22077 15.5183 1.33195C16.2943 1.60135 17.0403 1.93917 17.7447 2.36465C18.6978 2.94034 19.5474 3.64217 20.2945 4.46961C20.881 5.11906 21.3885 5.82303 21.8084 6.59115C22.1126 7.14759 22.3848 7.71899 22.5742 8.32515C22.7151 8.77575 22.8555 9.22849 22.9595 9.68872C23.0412 10.0506 23.0759 10.4242 23.1164 10.7947C23.1596 11.1918 23.1853 11.5906 23.2167 11.9685ZM4.34534 20.5535C4.42272 20.5342 4.47342 20.5257 4.52145 20.5086C4.67994 20.4514 4.8363 20.3883 4.99479 20.3327C5.44839 20.1734 5.90146 20.012 6.35773 19.8613C6.49328 19.8164 6.62722 19.7512 6.78251 19.8581C7.23291 20.1665 7.70626 20.4386 8.21269 20.6444C8.59745 20.8004 8.98648 20.9496 9.38031 21.0795C9.60871 21.1548 9.85046 21.1944 10.0885 21.2371C10.4626 21.3045 10.8366 21.3852 11.2145 21.4157C11.6211 21.4488 12.0315 21.4333 12.4408 21.4339C12.587 21.4339 12.7348 21.4296 12.8794 21.4103C13.1468 21.3751 13.4131 21.3323 13.6783 21.2842C13.9291 21.2387 14.1831 21.1987 14.427 21.1276C14.7397 21.0367 15.0477 20.9266 15.3513 20.8079C15.6726 20.6823 16.0013 20.5642 16.2991 20.3947C16.7756 20.1232 17.2425 19.8308 17.6897 19.5133C18.3082 19.0745 18.8408 18.5351 19.3142 17.9434C19.5661 17.6286 19.8099 17.3025 20.0106 16.954C20.2747 16.4948 20.5037 16.0138 20.7267 15.5322C20.8452 15.2767 20.9279 15.0035 21.0122 14.7341C21.087 14.4952 21.1473 14.2509 21.2044 14.0066C21.2401 13.8559 21.2604 13.7019 21.2844 13.5491C21.3239 13.3 21.3789 13.052 21.3938 12.8013C21.4162 12.433 21.4141 12.0625 21.4141 11.6932C21.4141 11.4933 21.4061 11.2923 21.3837 11.094C21.3543 10.839 21.3111 10.5851 21.2663 10.3323C21.2209 10.0768 21.1819 9.81808 21.1115 9.56952C21.0197 9.24827 20.9109 8.93076 20.7881 8.61967C20.6531 8.27864 20.5143 7.93601 20.3398 7.61476C20.1307 7.2299 19.8985 6.85467 19.6445 6.4976C19.3985 6.15123 19.137 5.8086 18.8382 5.50766C18.4545 5.1212 18.043 4.75719 17.6134 4.42258C17.2687 4.15371 16.8914 3.92119 16.5072 3.71166C16.1123 3.49678 15.6976 3.31183 15.2793 3.14666C14.9399 3.0125 14.5839 2.91682 14.2301 2.82381C13.9745 2.75646 13.7114 2.71263 13.4499 2.67254C13.1399 2.62497 12.8287 2.56777 12.5166 2.55762C11.9893 2.54105 11.4605 2.52234 10.9354 2.60947C10.708 2.64688 10.4738 2.64849 10.2507 2.70087C9.84832 2.79548 9.45022 2.90827 9.05479 3.028C8.77676 3.11192 8.49819 3.20386 8.23244 3.32092C7.66357 3.57108 7.12245 3.87576 6.61281 4.23228C5.79526 4.80369 5.07964 5.48521 4.47555 6.27952C3.80582 7.15935 3.31166 8.13325 2.97493 9.18466C2.87728 9.48988 2.82178 9.80952 2.75133 10.1233C2.71932 10.2655 2.6921 10.4087 2.67235 10.553C2.63233 10.8465 2.56989 11.141 2.56989 11.435C2.56989 12.0348 2.59924 12.6345 2.62806 13.2337C2.6366 13.4096 2.67822 13.5849 2.71665 13.7581C2.77321 14.0125 2.83245 14.2669 2.90556 14.5171C2.99735 14.8303 3.08273 15.1478 3.20974 15.4472C3.38211 15.8534 3.58489 16.2474 3.78661 16.6402C4.03903 17.132 4.37256 17.5714 4.71729 18.0011C4.776 18.0738 4.80108 18.1348 4.78293 18.2288C4.69915 18.6602 4.62551 19.0932 4.54333 19.5245C4.50971 19.702 4.45847 19.8757 4.42379 20.0526C4.39337 20.2076 4.37469 20.3653 4.34588 20.554L4.34534 20.5535Z" fill="#00B309"/>
<path d="M7.9943 6.39202C8.19495 6.41875 8.39667 6.44067 8.59679 6.47327C8.85187 6.51443 8.99489 6.69029 9.09041 6.91319C9.33802 7.49154 9.58404 8.07043 9.82845 8.64986C9.90743 8.83694 10.0067 9.02136 10.0483 9.21699C10.1134 9.52221 10.035 9.8055 9.81671 10.0428C9.62459 10.2524 9.43995 10.4683 9.25157 10.6811C9.11336 10.8371 9.09041 11.1595 9.20835 11.3289C9.58617 11.8725 9.97573 12.4076 10.424 12.8967C10.8776 13.3916 11.3744 13.8316 11.9839 14.1282C12.3974 14.3297 12.8099 14.5339 13.2283 14.7258C13.3783 14.7942 13.5373 14.7809 13.6568 14.6462C13.8335 14.4468 14.0064 14.2437 14.1766 14.0389C14.3239 13.8615 14.4605 13.6744 14.6115 13.5001C14.8335 13.243 15.1158 13.1655 15.4307 13.3248C16.0897 13.6594 16.7547 13.9812 17.418 14.3078C17.4815 14.3393 17.5461 14.3693 17.6117 14.3949C17.9052 14.5099 18.0557 14.7247 18.0146 15.038C17.9751 15.3352 17.9057 15.6292 17.8433 15.9231C17.7857 16.1952 17.617 16.4021 17.4239 16.5886C17.0103 16.989 16.5439 17.3118 15.9889 17.477C15.5123 17.6187 15.024 17.6032 14.539 17.5123C14.2871 17.4653 14.0347 17.4166 13.7876 17.3509C13.5453 17.2867 13.3046 17.2119 13.0714 17.12C12.6397 16.95 12.2026 16.7875 11.7901 16.5779C11.3205 16.3395 10.8696 16.0627 10.4203 15.7858C9.9832 15.5164 9.60431 15.1711 9.25638 14.7958C8.75208 14.2517 8.25045 13.7054 7.75949 13.1495C7.30856 12.639 6.91953 12.081 6.60148 11.477C6.38161 11.06 6.22739 10.6233 6.1372 10.1551C6.04968 9.7002 5.96697 9.24906 5.97337 8.78563C5.97871 8.42108 6.04862 8.07097 6.26368 7.76629C6.4782 7.46268 6.68953 7.15533 6.91793 6.86187C7.18849 6.51443 7.54176 6.34018 8.00017 6.43372C7.99857 6.41982 7.9975 6.40592 7.9959 6.39256L7.9943 6.39202Z" fill="#00B309"/>
</g>
<defs>
<clipPath id="clip0_124_126">
<rect width="22.4346" height="22.4346" fill="white" transform="translate(0.782593 0.782715)"/>
</clipPath>
</defs>
</svg>
