<svg width="17" height="23" viewBox="0 0 17 23" fill="none" xmlns="http://www.w3.org/2000/svg">
<path d="M8.02509 0.631348C3.61564 0.631348 0.0250854 4.29801 0.0250854 8.80094C0.0250854 9.57287 0.340046 10.6664 0.906975 11.953C2.60776 15.877 6.38729 20.6372 8.02509 22.6313C9.66288 20.6372 13.4424 15.877 15.1432 11.953C15.7101 10.6664 16.0251 9.57287 16.0251 8.80094C16.0251 4.29801 12.4345 0.631348 8.02509 0.631348ZM8.02509 12.4033C6.07233 12.4033 4.43453 10.7951 4.43453 8.73661C4.43453 6.67813 6.00934 5.06994 8.02509 5.06994C10.0408 5.06994 11.6156 6.67813 11.6156 8.73661C11.6156 10.7951 10.0408 12.4033 8.02509 12.4033Z" fill="#641A2E"/>
</svg>
