<svg width="240" height="44" xmlns="http://www.w3.org/2000/svg" xml:space="preserve" enable-background="new 0 0 255 50" version="1.1">

 <g>
  <title>Layer 1</title>
  <g id="svg_1">
   <path id="svg_2" d="m89.64999,14.436l-5.47899,0l0,13.254c0,3.749 -1.50601,5.65 -4.59501,5.65c-1.197,0 -2.08399,-0.478 -2.70899,-1.099c-0.789,-0.794 -1.171,-2.107 -1.171,-4.023l0,-13.782l-5.44801,0l0,14.243c0,3.132 0.716,5.373 2.19099,6.853c1.41001,1.409 3.127,2.098 5.976,2.098c1.98801,0 4.427,-1.354 5.82501,-3.137l0,2.54l5.409,0l0,-22.597" fill="#003462"/>
   <path id="svg_3" d="m164.774,33.167c-0.03,0 -0.062,-0.002 -0.092,-0.002c-2.035,-0.03 -3.793,-0.775 -3.94,-2.476c-0.144,-1.698 0.84,-2.915 3.427,-3.36c0.67,-0.134 1.37199,-0.198 2.048,-0.299c1.02399,-0.156 2.241,-0.441 3.28299,-1.144l0,3.462c0,2.76 -2.705,3.819 -4.726,3.819m1.52901,-19.329l-0.073,0c-3.23799,0.014 -8.703,0.676 -9.33699,6.83l5.47899,0c-0.062,-2.436 2.56601,-2.618 3.35701,-2.618c0.13899,0 0.222,0.004 0.222,0.004c1.161,0 2.22699,0.369 2.99899,0.984c0.478,0.382 0.795,0.965 0.83101,1.916c0.06,1.534 -0.67401,2.268 -5.80501,2.764c-3.959,0.383 -8.67999,1.457 -8.67999,7.147c0,1.815 0.625,3.395 1.78999,4.566c1.42,1.419 3.561,2.2 6.028,2.2c3.265,0 5.15199,-0.818 6.834,-2.697l0.267,2.099l5.258,0l0,-0.848c-0.679,-0.535 -0.52699,-2.78 -0.52699,-2.78l0,-12.876c0,-1.689 -0.561,-3.112 -1.672,-4.225c-1.55602,-1.559 -3.77802,-2.466 -6.97101,-2.466" fill="#003462"/>
   <path id="svg_4" d="m123.46001,33.165c-1.54001,0 -2.545,-0.491 -3.506,-1.455c-1.304,-1.306 -2.02,-3.431 -2.02,-5.995c0,-2.443 0.78599,-4.63 2.149,-5.998c0.98799,-0.988 1.94698,-1.488 3.377,-1.488c3.19,0 4.873,2.048 5.364,5.763c0.075,0.565 0.101,2.614 0.06999,3c-0.35899,3.983 -2.06299,6.173 -5.43399,6.173m-0.67101,-19.326c-6.518,0 -10.303,4.601 -10.303,12.02c0,3.781 1.19801,7.142 3.285,9.233c1.681,1.686 3.597,2.538 6.20601,2.538c2.967,0 5.13,-1.358 6.77499,-3.384l0,8.915l5.48401,-0.014l-0.005,-28.693l-5.19499,-0.018l0,2.83c-1.401,-1.936 -3.35401,-3.427 -6.24702,-3.427" fill="#003462"/>
   <polygon id="svg_5" points="67.10699844360352,6.885000228881836 61.16800308227539,6.885000228881836 61.16800308227539,18.42199993133545 48.711997985839844,18.42199993133545 48.711997985839844,6.885000228881836 42.77299880981445,6.885000228881836 42.77299880981445,37.032999992370605 48.711997985839844,37.032999992370605 48.711997985839844,23.626999855041504 61.16800308227539,23.626999855041504 61.16800308227539,37.032999992370605 67.10699844360352,37.032999992370605 " fill="#003462"/>
   <path id="svg_6" d="m101.56699,13.838l-0.21,0c-4.19699,0.061 -9.189,1.722 -9.189,6.586c0,4.58 3.16701,5.972 6.976,6.793c0.51001,0.119 1.02901,0.23 1.534,0.336c2.843,0.596 4.97901,1.161 5.024,3.043c0.047,1.88 -1.54199,2.615 -3.884,2.674c-0.06599,0.001 -0.131,0.001 -0.196,0.001c-2.248,0 -3.98399,-1.008 -4.31499,-2.986l-5.51601,0c0.255,5.583 5.737,7.346 9.68099,7.346c0.091,0 0.18201,0 0.27101,-0.003c3.96399,-0.082 5.76099,-1.02 7.53799,-2.798c1.24,-1.238 1.871,-2.811 1.871,-4.67c0,-4.409 -3.34499,-5.856 -7.148,-6.757l-1.193,-0.275c-2.95799,-0.579 -5.38799,-1.172 -5.246,-2.88c0.138,-1.713 1.99401,-2.085 3.44501,-2.127c0.09499,-0.001 0.189,-0.003 0.28201,-0.003c1.327,0 2.43799,0.31 3.24599,1.934l5.68099,0c-0.556,-4.309 -4.46,-6.214 -8.652,-6.214" fill="#003462"/>
   <polygon id="svg_7" points="156.7450065612793,14.435999870300293 151.07400131225586,14.435999870300293 146.22300338745117,31.813998222351074 141.19900131225586,14.435999870300293 135.2819938659668,14.435999870300293 143.11899948120117,37.032999992370605 148.97900009155273,37.032999992370605 " fill="#003462"/>
   <path id="svg_8" d="m189.119,13.617c-0.369,0 -0.76801,0.022 -1.17799,0.082c-1.776,0.263 -3.88901,2.279 -4.80301,4.686l0,-3.949l-5.162,0l0,22.597l5.479,0l0,-10.789c0,-2.454 0.155,-4.309 1.285,-5.759c0.838,-1.078 2.31,-2.147 3.789,-2.147c0.028,0 0.056,0.001 0.08299,0.001c1.498,0.042 2.371,0.35 2.371,0.35l0,-4.884c0,0 -0.8,-0.188 -1.864,-0.188" fill="#003462"/>
   <path id="svg_9" d="m204.41301,13.839c-2.67799,0 -4.694,1.419 -6.31599,3.981l0,-3.384l-5.164,0l0,22.598l5.44901,0l0,-13.33c0,-1.625 0.347,-3.132 1.364,-4.147c0.869,-0.877 2.112,-1.378 3.612,-1.378l0.14,0c2.511,0.047 3.362,1.493 3.463,4.727l-0.004,14.128l5.452,0l0,-15.447c0,-2.366 -0.685,-4.253 -2.036,-5.604c-1.40601,-1.406 -3.39201,-2.144 -5.96001,-2.144" fill="#003462"/>
   <path id="svg_10" d="m26.987,14.471l-5.061,0l0,6.15c0,1.213 0.05,1.213 -3.546,1.213c-3.666,0 -3.653,0 -3.653,-1.213l0,-6.15l-4.987,0l0,20.496l4.987,0l0,-7.4c0,-1.175 -0.012,-1.175 3.653,-1.175c3.596,0 3.546,0 3.546,1.175l0,7.4l5.061,0l0,-20.496m-8.607,24.083c-4.29,0 -5.724,0 -7.85,-0.588c-0.736,-0.257 -2.054,-0.624 -3.009,-2.13c-1.759,-3.009 -1.759,-8.663 -1.759,-11.382s0,-7.528 1.759,-10.5c0.955,-1.543 2.273,-1.911 3.009,-2.167c2.125,-0.551 3.56,-0.551 7.85,-0.551c4.184,0 5.612,0 7.78,0.551c0.73,0.256 2.016,0.624 2.893,2.167c1.912,2.972 1.912,8.111 1.912,10.829c0,2.646 0,8.044 -1.912,11.053c-0.877,1.506 -2.163,1.874 -2.893,2.13c-2.168,0.588 -3.596,0.588 -7.78,0.588m-0.074,-38.554l0,0c-1.869,0 -3.077,0.326 -3.591,0.441c0.256,2.383 0.183,4.295 0,4.846c-0.46,1.351 -2.508,2.164 -4.127,2.164c-0.583,0 -1.108,-0.105 -1.486,-0.327c-1.58,-0.956 -1.213,-3.858 -1.213,-5.769c0,0 -2.313,0.57 -3.743,1.102c-1.158,0.438 -2.894,1.287 -2.894,1.287c-0.367,2.425 0,5.985 2.385,7.198c-1.8,1.801 -2.385,3.931 -3.155,7.857c-0.391,2.203 -0.479,3.99 -0.482,5.524l0,0.146c0.001,0.861 0.029,1.645 0.041,2.374c0.184,2.787 0.184,4.295 0.845,6.83c0.951,2.897 1.516,4.263 3.445,6.278c3.492,3.644 8.972,3.858 12.727,3.858c0.463,0 0.901,-0.003 1.304,-0.004c0.559,0.002 1.186,0.012 1.862,0.012c3.762,0 9.037,-0.307 12.245,-3.867c1.846,-2.044 2.31,-3.38 3.229,-6.278c0.809,-2.535 0.697,-4.043 0.956,-6.83c0.073,-2.059 0.185,-4.52 -0.515,-8.043c-0.771,-3.926 -1.359,-6.057 -3.155,-7.857c2.384,-1.213 2.714,-4.773 2.384,-7.198c0,0 -1.824,-0.904 -3.045,-1.359c-1.329,-0.49 -3.483,-1.029 -3.483,-1.029c0,1.911 0.216,4.813 -1.212,5.769c-0.388,0.222 -0.924,0.327 -1.512,0.327c-1.645,0 -3.704,-0.813 -4.137,-2.164c-0.184,-0.551 -0.367,-2.463 0,-4.846c-0.518,-0.116 -1.946,-0.442 -3.673,-0.442" fill="#003462"/>
   <path id="svg_11" d="m223.62001,33.18l-0.091,0c-2.036,-0.032 -3.78899,-0.781 -3.93599,-2.482c-0.14801,-1.692 0.84,-2.916 3.42599,-3.361c0.675,-0.133 1.37401,-0.196 2.045,-0.298c1.02301,-0.151 2.242,-0.436 3.28801,-1.139l0,3.463c-0.00002,2.755 -2.70102,3.817 -4.73201,3.817m1.16499,-19.332l-0.07201,0c-3.23799,0.014 -8.70299,0.678 -9.332,6.833l5.47401,0c-0.06201,-2.441 2.56499,-2.623 3.353,-2.623c0.14,0 0.22299,0.005 0.22299,0.005c1.166,0 2.59801,0.367 3.37401,0.987c0.474,0.382 0.791,0.966 0.827,1.916c0.06,1.53 -0.675,2.264 -5.80499,2.761c-3.964,0.385 -8.68201,1.461 -8.68201,7.151c0,1.813 0.621,3.395 1.79199,4.565c1.41901,1.416 3.56001,2.2 6.02501,2.2c3.26599,0 5.14999,-0.823 6.83499,-2.701l0.26601,2.099l5.259,0l0,-0.843c-0.679,-0.539 -0.528,-2.779 -0.528,-2.779l0,-12.875c0,-1.694 -0.56,-3.113 -1.67101,-4.226c-1.56,-1.559 -4.136,-2.47 -7.338,-2.47" fill="#003462"/>
  </g>
  <path id="svg_12" d="m237.099,13.929c-1.603,0 -2.899,-1.297 -2.899,-2.9c0,-1.601 1.29601,-2.899 2.899,-2.899c1.601,0 2.899,1.298 2.899,2.899c0,1.603 -1.298,2.9 -2.899,2.9m0,-5.441c-1.40599,0 -2.54199,1.135 -2.54199,2.542c0,1.408 1.136,2.543 2.54199,2.543c1.407,0 2.54201,-1.136 2.54201,-2.543c-0.00101,-1.408 -1.13501,-2.542 -2.54201,-2.542m1.127,1.858c0,0.295 -0.14801,0.56 -0.38,0.708c-0.14799,0.093 -0.29601,0.125 -0.522,0.154c0.42101,0.157 0.52901,0.25 1.01801,1.377l-0.45801,0c-0.513,-1.127 -0.644,-1.322 -1.39699,-1.322l-0.18001,0l0,1.322l-0.382,0l0,-3.048l1.267,0c1.03401,-0.001 1.03401,0.723 1.03401,0.809m-1.92,0.599l0.505,0c0.49699,0 0.97099,-0.047 0.97099,-0.568c0,-0.497 -0.39699,-0.528 -0.90799,-0.528l-0.56801,0l0,1.096z" fill="#003462"/>
 </g>
</svg>
