<svg width="732" height="193" xmlns="http://www.w3.org/2000/svg" xml:space="preserve" enable-background="new 0 0 800 800" version="1.0">

 <g>
  <title>Layer 1</title>
  <g id="svg_1">
   <path id="svg_2" d="m210.66301,4.78757l0,123.91901c0,33.04599 -25.3,59.89499 -56.28,59.89499l-98.61901,0c-30.465,0 -55.764,-26.849 -55.764,-59.89499l0,-16.522l48.019,0c9.81001,0 14.457,3.61401 14.457,13.94101l0,2.58099c0,11.35999 8.26,24.26797 20.653,24.26797l44.404,0c12.393,0 20.65401,-12.90698 20.65401,-24.26797l0,-101.71698c0,-12.39301 5.67899,-22.202 19.104,-22.202l43.37199,0l0,-0.00003zm9.29401,183.81403l45.43797,0c5.164,0 11.875,-4.647 14.97302,-9.29501l67.12399,-108.42999c1.54901,-2.58099 3.61401,-4.13 6.19598,-4.13c2.58301,0 4.647,2.065 6.19702,4.13l26.332,41.82501c3.09799,5.16199 1.03299,7.74298 -5.16202,7.74298l-36.66,0c-5.16397,0 -12.39297,4.13202 -14.974,9.29501c-3.09799,5.16199 -6.19598,10.841 -9.293,16.00601c-4.12997,6.711 -2.582,11.87598 5.16302,11.87598l78.483,0c8.26099,0 11.35898,2.064 15.491,8.776l7.74298,12.90802c3.099,4.647 9.81201,9.29498 14.974,9.29498l45.43701,0c5.68201,0 7.229,-4.647 4.13202,-9.29498l-98.62003,-165.22601c-3.09698,-5.16299 -9.81,-9.293 -14.97299,-9.293l-48.53601,0c-5.16299,0 -11.875,4.13 -14.974,9.293l-98.61899,165.22601c-3.10101,4.64798 -1.552,9.29599 4.12801,9.29599m342.84395,-116.69101c16.521,-30.46301 57.82898,-39.242 88.80902,-11.87601c3.099,2.58301 4.13098,5.16501 8.263,5.16501l56.27899,0c6.71198,0 10.84198,-2.06702 11.87598,-6.19601c1.03101,-2.58298 0,-6.19699 -3.61401,-9.811c-23.75195,-28.91397 -57.82898,-46.46997 -104.81598,-49.05197c-51.11603,-2.06403 -105.33099,18.58798 -129.08301,61.961c-10.841,20.13699 -10.841,48.53497 0,68.67099c23.75201,43.37299 77.96704,64.54099 129.08301,61.961c37.69202,-2.065 67.12402,-13.42599 89.84198,-33.04599c7.22803,-6.19501 12.909,-13.42502 19.104,-20.65302c3.61401,-4.13098 3.61401,-7.745 3.099,-10.32599c-1.034,-3.61502 -5.67999,-5.67999 -11.87598,-5.67999l-56.28101,0c-5.16199,0 -11.35797,10.327 -16.005,13.42599c-5.67999,4.646 -10.84399,8.25998 -17.039,10.32498c-26.33398,8.77802 -54.73102,-2.065 -67.64001,-25.815c-8.26196,-14.97699 -8.26196,-33.564 -0.00098,-49.05399" fill="#CC000C" clip-rule="evenodd" fill-rule="evenodd"/>
  </g>
 </g>
</svg>
